<svg xmlns="http://www.w3.org/2000/svg" viewBox="0 0 48 48" width="344" height="344"><linearGradient id="a" x1="6.414" x2="41.774" y1="13.662" y2="39.488" gradientUnits="userSpaceOnUse"><stop offset="0" stop-color="#28afea"/><stop offset="1" stop-color="#047ed6"/></linearGradient><path fill="url(#a)" d="M6 40V12h36v28c0 1.1-.9 2-2 2H8c-1.1 0-2-.9-2-2z"/><linearGradient id="b" x1="6.42" x2="41.198" y1="6.608" y2="13.68" gradientUnits="userSpaceOnUse"><stop offset="0" stop-color="#0077d2"/><stop offset="1" stop-color="#0b59a2"/></linearGradient><path fill="url(#b)" d="M42 8v6H6V8c0-1.1.9-2 2-2h32c1.1 0 2 .9 2 2z"/><path d="M35.5 12.5a3 3 0 01-3-3V6h6v3.5a3 3 0 01-3 3z" opacity=".05"/><path d="M35.5 11.75a2.25 2.25 0 01-2.25-2.25V6h4.5v3.5a2.25 2.25 0 01-2.25 2.25z" opacity=".07"/><path d="M12.5 12.5a3 3 0 01-3-3V6h6v3.5a3 3 0 01-3 3z" opacity=".05"/><path d="M12.5 11.75a2.25 2.25 0 01-2.25-2.25V6h4.5v3.5a2.25 2.25 0 01-2.25 2.25z" opacity=".07"/><path fill="#3ccbf4" d="M12.5 11A1.5 1.5 0 0111 9.5v-4a1.5 1.5 0 013 0v4a1.5 1.5 0 01-1.5 1.5z"/><path fill="#fff" d="M38 19.5v3a.5.5 0 01-.5.5h-3a.5.5 0 01-.5-.5v-3a.5.5 0 01.5-.5h3a.5.5 0 01.5.5zm-8 0v3a.5.5 0 01-.5.5h-3a.5.5 0 01-.5-.5v-3a.5.5 0 01.5-.5h3a.5.5 0 01.5.5zm-8 0v3a.5.5 0 01-.5.5h-3a.5.5 0 01-.5-.5v-3a.5.5 0 01.5-.5h3a.5.5 0 01.5.5zM38 26.5v3a.5.5 0 01-.5.5h-3a.5.5 0 01-.5-.5v-3a.5.5 0 01.5-.5h3a.5.5 0 01.5.5zm-8 0v3a.5.5 0 01-.5.5h-3a.5.5 0 01-.5-.5v-3a.5.5 0 01.5-.5h3a.5.5 0 01.5.5zm-8 0v3a.5.5 0 01-.5.5h-3a.5.5 0 01-.5-.5v-3a.5.5 0 01.5-.5h3a.5.5 0 01.5.5zm-8 0v3a.5.5 0 01-.5.5h-3a.5.5 0 01-.5-.5v-3a.5.5 0 01.5-.5h3a.5.5 0 01.5.5zM30 33.5v3a.5.5 0 01-.5.5h-3a.5.5 0 01-.5-.5v-3a.5.5 0 01.5-.5h3a.5.5 0 01.5.5zm-8 0v3a.5.5 0 01-.5.5h-3a.5.5 0 01-.5-.5v-3a.5.5 0 01.5-.5h3a.5.5 0 01.5.5zm-8 0v3a.5.5 0 01-.5.5h-3a.5.5 0 01-.5-.5v-3a.5.5 0 01.5-.5h3a.5.5 0 01.5.5z"/><path fill="#3ccbf4" d="M35.5 11A1.5 1.5 0 0134 9.5v-4a1.5 1.5 0 013 0v4a1.5 1.5 0 01-1.5 1.5z"/></svg>
